<svg width="48" height="48" viewBox="0 0 48 48" fill="none" xmlns="http://www.w3.org/2000/svg">
<path d="M33.7544 30L42 34C42 34 43 30 43 24C43 18 42 14 42 14L33.7544 18" stroke="#2E294E" stroke-width="2.5" stroke-linecap="round" stroke-linejoin="round"/>
<path d="M20 10C13.7778 10 8.33334 10.7778 7.55556 11.5556C6.77778 12.3333 6 17.7778 6 24C6 30.2222 6.77778 35.6666 7.55556 36.4444C8.33334 37.2222 13.7778 38 20 38C26.2222 38 31.6666 37.2222 32.4444 36.4444C32.954 35.9348 33.4636 33.4222 33.7544 30C33.9076 28.1988 34 26.1456 34 24C34 21.8544 33.9076 19.8012 33.7544 18C33.4636 14.5778 32.954 12.0651 32.4444 11.5556C31.6666 10.7778 26.2222 10 20 10Z" stroke="#2E294E" stroke-width="2.5" stroke-linecap="round" stroke-linejoin="round"/>
</svg>
