<svg width="48" height="48" viewBox="0 0 48 48" fill="none" xmlns="http://www.w3.org/2000/svg">
<path d="M38 12C41 15 42 20 42 24C42 28 41 33 38 36" stroke="#2E294E" stroke-width="2.5" stroke-linecap="round" stroke-linejoin="round"/>
<path d="M32 18C33 19 34 21 34 24C34 27 33 29 32 30" stroke="#2E294E" stroke-width="2.5" stroke-linecap="round" stroke-linejoin="round"/>
<path d="M6 27V21C6 18.7909 7 17 11 16C15 15 18 6 24 6C28 6 28 42 24 42C18 42 15 33 11 32C7 31 6 29.2092 6 27Z" stroke="#2E294E" stroke-width="2.5" stroke-linecap="round" stroke-linejoin="round"/>
</svg>
